<svg width="9" height="12" viewBox="0 0 9 12" fill="none" xmlns="http://www.w3.org/2000/svg">
<path d="M8.73593 11.9127H7.94175V9.92725C7.94175 9.40068 7.73257 8.89567 7.36023 8.52332C6.98788 8.15098 6.48288 7.9418 5.9563 7.9418H3.57376C3.04719 7.9418 2.54218 8.15098 2.16983 8.52332C1.79749 8.89567 1.58831 9.40068 1.58831 9.92725V11.9127H0.794128V9.92725C0.794128 9.19005 1.08698 8.48304 1.60826 7.96175C2.12955 7.44047 2.83656 7.14762 3.57376 7.14762H5.9563C6.69351 7.14762 7.40052 7.44047 7.9218 7.96175C8.44308 8.48304 8.73593 9.19005 8.73593 9.92725V11.9127ZM4.76503 1.58835C5.15772 1.58835 5.54158 1.7048 5.86809 1.92296C6.19459 2.14113 6.44907 2.45121 6.59935 2.81401C6.74962 3.1768 6.78894 3.57601 6.71233 3.96115C6.63572 4.34629 6.44663 4.70006 6.16896 4.97773C5.89129 5.2554 5.53751 5.4445 5.15237 5.52111C4.76723 5.59772 4.36803 5.5584 4.00523 5.40812C3.64244 5.25785 3.33235 5.00337 3.11419 4.67686C2.89602 4.35036 2.77958 3.96649 2.77958 3.57381C2.77958 3.04723 2.98876 2.54222 3.3611 2.16988C3.73345 1.79754 4.23846 1.58835 4.76503 1.58835M4.76503 0.794174C4.21527 0.794174 3.67786 0.957197 3.22075 1.26263C2.76364 1.56806 2.40737 2.00218 2.19699 2.51009C1.9866 3.018 1.93156 3.57689 2.03881 4.11609C2.14606 4.65528 2.4108 5.15056 2.79953 5.5393C3.18827 5.92804 3.68356 6.19278 4.22275 6.30003C4.76195 6.40728 5.32084 6.35223 5.82875 6.14185C6.33666 5.93147 6.77078 5.57519 7.07621 5.11809C7.38164 4.66098 7.54466 4.12357 7.54466 3.57381C7.54466 2.8366 7.25181 2.12959 6.73053 1.60831C6.20924 1.08703 5.50223 0.794174 4.76503 0.794174V0.794174Z" fill="white"/>
</svg>
